<svg id="Capa_2" data-name="Capa 2" xmlns="http://www.w3.org/2000/svg" viewBox="0 0 290.43 266.76"><circle cx="145.21" cy="133.71" r="47.69" transform="translate(-52.02 141.84) rotate(-45)"/><path d="M148.1,29.78a29.78,29.78,0,0,1-27.38,29.67c-.79.07-1.59.1-2.4.1A29.74,29.74,0,0,1,91.46,42.62l-4.95-1.08A106.49,106.49,0,0,0,71.79,40c-2.72-.09-5.38,0-8,.15a63.44,63.44,0,0,0-7.68,1,49.87,49.87,0,0,0-11.35,3.49c-.8.35-1.57.74-2.33,1.14A34.61,34.61,0,0,0,36.22,50l-.13.09A29.76,29.76,0,0,0,32,54.38,35.54,35.54,0,0,0,25.59,67a51.8,51.8,0,0,0-1.75,15.74,80.52,80.52,0,0,0,2.45,17.06A120.16,120.16,0,0,0,32,116.92c.6,1.4,1.15,2.83,1.81,4.22l1.95,4.18c1.41,2.75,2.77,5.55,4.33,8.24s3.15,5.39,4.76,8.08,3.38,5.29,5.21,7.85c2.46,3.59,5.07,7.08,7.77,10.51,1.22,1.55,2.47,3.09,3.73,4.62l3.07,3.66c1,1.21,2.11,2.38,3.17,3.57,2.1,2.41,4.33,4.69,6.52,7,4.48,4.57,9.07,9.07,13.9,13.32,1.21,1.06,2.4,2.16,3.62,3.2l3.7,3.12c2.45,2.09,5,4.09,7.53,6.08q7.67,5.94,15.78,11.35-8.73-4.29-17.2-9.25c-2.81-1.65-5.62-3.32-8.35-5.1l-4.13-2.65c-1.38-.89-2.71-1.83-4.08-2.75-5.43-3.66-10.69-7.61-15.88-11.67-2.54-2.09-5.14-4.13-7.61-6.31-1.25-1.09-2.52-2.15-3.75-3.26l-3.66-3.35c-4.85-4.53-9.58-9.21-14-14.18-2.29-2.45-4.41-5-6.6-7.58s-4.24-5.23-6.22-8c-.62-.82-1.23-1.64-1.82-2.48l0,0c-1.36-1.9-2.68-3.85-4-5.8l-2.75-4.32c-.1-.15-.19-.29-.28-.45-.82-1.3-1.56-2.65-2.35-4A140.07,140.07,0,0,1,7,106,102.58,102.58,0,0,1,1.13,85.15a75.61,75.61,0,0,1-.46-23C2.36,50,3.81,47.23,8.71,39A61.91,61.91,0,0,1,25.63,20.34a78.57,78.57,0,0,1,21.73-11,93.66,93.66,0,0,1,11.34-3A111.52,111.52,0,0,1,70,4.54a148.91,148.91,0,0,1,28.55-.11l3.58.34a29.77,29.77,0,0,1,45.93,25Z"/><path d="M289.75,204.59c-1.69,12.16-3.14,14.95-8,23.2a62,62,0,0,1-16.92,18.64,78.93,78.93,0,0,1-21.72,11,96.15,96.15,0,0,1-11.35,3,109.06,109.06,0,0,1-11.33,1.76,149.82,149.82,0,0,1-28.56.1l-3.58-.34a29.77,29.77,0,1,1-18.55-54.68c.79-.06,1.59-.1,2.4-.1A29.76,29.76,0,0,1,199,224.14l4.95,1.08a103.5,103.5,0,0,0,14.72,1.51,78.83,78.83,0,0,0,8-.14,63.43,63.43,0,0,0,7.68-1,49.87,49.87,0,0,0,11.35-3.49c.8-.35,1.57-.74,2.34-1.14a34.48,34.48,0,0,0,6.19-4.22l.13-.1a29.18,29.18,0,0,0,4.09-4.29,35.54,35.54,0,0,0,6.41-12.61A51.9,51.9,0,0,0,266.58,184,81.14,81.14,0,0,0,264.14,167a121.79,121.79,0,0,0-5.69-17.12c-.6-1.4-1.15-2.83-1.8-4.23l-2-4.18c-1.4-2.75-2.77-5.54-4.33-8.24s-3.15-5.39-4.76-8.07-3.38-5.3-5.21-7.86c-2.45-3.58-5.07-7.08-7.77-10.51-1.22-1.54-2.47-3.09-3.73-4.62l-3.07-3.65c-1-1.21-2.11-2.38-3.17-3.58-2.09-2.4-4.33-4.68-6.52-7-4.48-4.56-9.07-9.06-13.9-13.32-1.21-1.06-2.39-2.16-3.62-3.2l-3.7-3.11c-2.45-2.1-5-4.1-7.53-6.08q-7.66-6-15.77-11.36,8.73,4.31,17.19,9.25c2.81,1.66,5.62,3.33,8.35,5.11l4.13,2.64c1.38.89,2.71,1.84,4.08,2.75,5.43,3.67,10.69,7.61,15.88,11.67,2.54,2.09,5.15,4.13,7.62,6.31,1.24,1.09,2.51,2.15,3.74,3.27l3.67,3.35c4.84,4.52,9.57,9.2,14,14.18,2.29,2.44,4.41,5,6.61,7.58s4.24,5.23,6.21,8c.62.81,1.23,1.64,1.82,2.47l0,0c1.37,1.9,2.68,3.85,4,5.8l2.74,4.32.28.45c.82,1.3,1.57,2.65,2.36,4a142.44,142.44,0,0,1,9.09,18.8,102.58,102.58,0,0,1,5.82,20.86A75.63,75.63,0,0,1,289.75,204.59Z"/></svg>