<svg id="Capa_2" data-name="Capa 2" xmlns="http://www.w3.org/2000/svg" xmlns:xlink="http://www.w3.org/1999/xlink" viewBox="0 0 290.43 266.76"><defs><style>.cls-1{fill:url(#Degradado_sin_nombre_14);}.cls-2{fill:url(#Degradado_sin_nombre_7);}.cls-3{fill:url(#Degradado_sin_nombre_18);}.cls-4{fill:url(#Degradado_sin_nombre_16);}.cls-5{fill:url(#Degradado_sin_nombre_18-2);}</style><linearGradient id="Degradado_sin_nombre_14" x1="110.43" y1="137.86" x2="237.02" y2="122.77" gradientTransform="translate(137.08 -63.52) rotate(45)" gradientUnits="userSpaceOnUse"><stop offset="0.03" stop-color="#5d00ef"/><stop offset="0.39" stop-color="#475ef6"/><stop offset="0.68" stop-color="#37a5fb"/><stop offset="0.89" stop-color="#2dd0fe"/><stop offset="1" stop-color="#29e1ff"/></linearGradient><linearGradient id="Degradado_sin_nombre_7" x1="-10.77" y1="82.89" x2="130.39" y2="38.11" gradientUnits="userSpaceOnUse"><stop offset="0" stop-color="#29e1ff"/><stop offset="0.11" stop-color="#2dd0fe"/><stop offset="0.32" stop-color="#37a5fb"/><stop offset="0.61" stop-color="#475ef6"/><stop offset="0.97" stop-color="#5d00ef"/></linearGradient><linearGradient id="Degradado_sin_nombre_18" x1="16.92" y1="73.27" x2="87.88" y2="184.42" gradientTransform="matrix(1, 0, 0, 1, 0, 0)" xlink:href="#Degradado_sin_nombre_14"/><linearGradient id="Degradado_sin_nombre_16" x1="3877.81" y1="7647.92" x2="4024.44" y2="7588.95" gradientTransform="translate(4173.21 7830.5) rotate(180)" xlink:href="#Degradado_sin_nombre_7"/><linearGradient id="Degradado_sin_nombre_18-2" x1="3902.21" y1="7641.52" x2="3975.24" y2="7751.31" gradientTransform="translate(4173.21 7830.5) rotate(180)" xlink:href="#Degradado_sin_nombre_14"/></defs><circle class="cls-1" cx="145.21" cy="133.71" r="47.69" transform="translate(-52.02 141.84) rotate(-45)"/><path class="cls-2" d="M148.1,29.77a29.77,29.77,0,0,1-27.38,29.68c-.79.06-1.59.1-2.4.1A29.78,29.78,0,0,1,91.46,42.62l-4.95-1.08A106.49,106.49,0,0,0,71.79,40a75.82,75.82,0,0,0-8,.15,63.19,63.19,0,0,0-7.68,1,50,50,0,0,0-11.36,3.49c-.79.35-1.57.74-2.33,1.14A35.09,35.09,0,0,0,36.22,50a.58.58,0,0,1-.12.1,62.21,62.21,0,0,0-17.7,78.7c-.82-1.3-1.56-2.65-2.35-4A142.53,142.53,0,0,1,7,106,102.58,102.58,0,0,1,1.13,85.15a75.94,75.94,0,0,1-.46-23C2.36,50,3.82,47.23,8.71,39A62.08,62.08,0,0,1,25.63,20.33a79.27,79.27,0,0,1,21.73-11,95.48,95.48,0,0,1,11.34-3A109.2,109.2,0,0,1,70,4.54a148.91,148.91,0,0,1,28.55-.11l3.59.34a29.76,29.76,0,0,1,45.92,25Z"/><path class="cls-3" d="M118.82,215.94q-8.73-4.31-17.19-9.25c-2.81-1.65-5.63-3.32-8.36-5.1l-4.13-2.65c-1.38-.89-2.71-1.84-4.08-2.75-5.43-3.67-10.68-7.61-15.87-11.67-2.55-2.09-5.15-4.13-7.62-6.31-1.25-1.09-2.52-2.15-3.75-3.26l-3.66-3.35c-4.84-4.53-9.58-9.21-14-14.19-2.29-2.44-4.41-5-6.6-7.58s-4.24-5.22-6.22-8c-.62-.82-1.23-1.65-1.82-2.48l0,0c-1.36-1.9-2.67-3.85-4-5.8l-2.75-4.32c-.1-.15-.19-.3-.28-.45a62.21,62.21,0,0,1,17.7-78.7,29.31,29.31,0,0,0-4.1,4.3A35.19,35.19,0,0,0,25.6,67a51.49,51.49,0,0,0-1.75,15.74,80.5,80.5,0,0,0,2.44,17.06A122.73,122.73,0,0,0,32,116.92c.61,1.4,1.15,2.83,1.81,4.22l2,4.18c1.4,2.75,2.76,5.54,4.33,8.24s3.14,5.39,4.76,8.07,3.37,5.3,5.21,7.86c2.45,3.59,5.06,7.08,7.77,10.51,1.22,1.55,2.47,3.09,3.72,4.62l3.07,3.65c1,1.22,2.12,2.38,3.18,3.58,2.09,2.41,4.32,4.69,6.52,7,4.48,4.56,9.07,9.06,13.89,13.32,1.21,1.06,2.4,2.16,3.62,3.2l3.7,3.12c2.45,2.09,5,4.09,7.54,6.08Q110.72,210.53,118.82,215.94Z"/><path class="cls-4" d="M142.33,237a29.77,29.77,0,0,1,27.38-29.68c.79-.06,1.58-.1,2.39-.1A29.78,29.78,0,0,1,199,224.14l4.95,1.08a106.49,106.49,0,0,0,14.72,1.51,78.61,78.61,0,0,0,8-.15,63.44,63.44,0,0,0,7.68-1,49.72,49.72,0,0,0,11.35-3.49c.8-.35,1.57-.74,2.34-1.14a35.46,35.46,0,0,0,6.2-4.22.58.58,0,0,1,.12-.1A62.25,62.25,0,0,0,272,138c.81,1.3,1.56,2.65,2.35,4a142.53,142.53,0,0,1,9.1,18.8,103.88,103.88,0,0,1,5.82,20.86,75.94,75.94,0,0,1,.46,23c-1.69,12.16-3.15,14.94-8,23.2a62,62,0,0,1-16.93,18.63,78.83,78.83,0,0,1-21.72,11,96.15,96.15,0,0,1-11.35,3,109,109,0,0,1-11.33,1.75,148.91,148.91,0,0,1-28.55.11l-3.59-.34a29.76,29.76,0,0,1-45.92-25Z"/><path class="cls-5" d="M171.61,50.82q8.73,4.31,17.19,9.25c2.81,1.65,5.62,3.32,8.35,5.1l4.13,2.65c1.39.89,2.72,1.83,4.08,2.75,5.44,3.67,10.69,7.61,15.88,11.67,2.54,2.09,5.15,4.13,7.62,6.31,1.25,1.09,2.51,2.15,3.74,3.26l3.67,3.35c4.84,4.53,9.57,9.21,14,14.19,2.29,2.44,4.41,5,6.6,7.58s4.24,5.22,6.21,8c.62.82,1.23,1.65,1.83,2.48l0,0c1.37,1.9,2.68,3.85,4,5.8l2.75,4.32c.1.15.19.3.28.45a62.25,62.25,0,0,1-17.7,78.7,29.82,29.82,0,0,0,4.1-4.3,35.35,35.35,0,0,0,6.4-12.61A51.8,51.8,0,0,0,266.58,184,80.5,80.5,0,0,0,264.14,167a121.49,121.49,0,0,0-5.69-17.13c-.6-1.4-1.15-2.83-1.8-4.22l-2-4.18c-1.4-2.75-2.77-5.54-4.33-8.24s-3.14-5.39-4.76-8.07-3.38-5.3-5.21-7.86c-2.45-3.59-5.06-7.08-7.77-10.51-1.22-1.55-2.47-3.09-3.73-4.62l-3.07-3.65c-1-1.22-2.11-2.38-3.17-3.58-2.09-2.41-4.33-4.69-6.52-7-4.48-4.56-9.07-9.06-13.89-13.32-1.22-1.06-2.4-2.16-3.62-3.2l-3.7-3.12c-2.46-2.09-5-4.09-7.54-6.08Q179.72,56.23,171.61,50.82Z"/></svg>